<svg xmlns="http://www.w3.org/2000/svg" xmlns:xlink="http://www.w3.org/1999/xlink" width="54" zoomAndPan="magnify" viewBox="0 0 40.5 40.5" height="54" preserveAspectRatio="xMidYMid meet" version="1.0"><defs><clipPath id="b8c8b6c29c"><path d="M 0 0 L 40 0 L 40 39.871094 L 0 39.871094 Z M 0 0 " clip-rule="nonzero"/></clipPath></defs><g clip-path="url(#b8c8b6c29c)"><path fill="#19891f" d="M 39.996094 20.070312 C 39.996094 20.722656 39.964844 21.375 39.898438 22.023438 C 39.835938 22.675781 39.738281 23.320312 39.613281 23.960938 C 39.484375 24.601562 39.328125 25.230469 39.136719 25.855469 C 38.949219 26.480469 38.726562 27.097656 38.476562 27.699219 C 38.226562 28.300781 37.949219 28.890625 37.640625 29.46875 C 37.332031 30.042969 37 30.601562 36.636719 31.144531 C 36.273438 31.6875 35.882812 32.210938 35.46875 32.71875 C 35.054688 33.222656 34.617188 33.707031 34.15625 34.167969 C 33.695312 34.628906 33.210938 35.066406 32.707031 35.480469 C 32.203125 35.894531 31.679688 36.285156 31.136719 36.648438 C 30.59375 37.007812 30.03125 37.34375 29.457031 37.652344 C 28.882812 37.960938 28.292969 38.238281 27.6875 38.488281 C 27.085938 38.738281 26.472656 38.957031 25.847656 39.148438 C 25.222656 39.335938 24.589844 39.496094 23.949219 39.625 C 23.308594 39.75 22.664062 39.847656 22.011719 39.910156 C 21.363281 39.972656 20.710938 40.007812 20.058594 40.007812 C 19.40625 40.007812 18.753906 39.972656 18.105469 39.910156 C 17.457031 39.847656 16.808594 39.75 16.167969 39.625 C 15.53125 39.496094 14.898438 39.335938 14.273438 39.148438 C 13.648438 38.957031 13.03125 38.738281 12.429688 38.488281 C 11.828125 38.238281 11.238281 37.960938 10.660156 37.652344 C 10.085938 37.34375 9.527344 37.007812 8.984375 36.648438 C 8.441406 36.285156 7.917969 35.894531 7.410156 35.480469 C 6.90625 35.066406 6.421875 34.628906 5.960938 34.167969 C 5.5 33.707031 5.0625 33.222656 4.648438 32.71875 C 4.234375 32.210938 3.84375 31.6875 3.484375 31.144531 C 3.121094 30.601562 2.785156 30.042969 2.476562 29.46875 C 2.167969 28.890625 1.890625 28.300781 1.640625 27.699219 C 1.390625 27.097656 1.171875 26.480469 0.980469 25.855469 C 0.792969 25.230469 0.632812 24.601562 0.503906 23.960938 C 0.378906 23.320312 0.28125 22.675781 0.21875 22.023438 C 0.15625 21.375 0.121094 20.722656 0.121094 20.070312 C 0.121094 19.417969 0.15625 18.765625 0.21875 18.117188 C 0.28125 17.464844 0.378906 16.820312 0.503906 16.179688 C 0.632812 15.539062 0.792969 14.90625 0.980469 14.28125 C 1.171875 13.65625 1.390625 13.042969 1.640625 12.441406 C 1.890625 11.835938 2.167969 11.246094 2.476562 10.671875 C 2.785156 10.097656 3.121094 9.535156 3.484375 8.992188 C 3.84375 8.449219 4.234375 7.925781 4.648438 7.421875 C 5.0625 6.917969 5.5 6.433594 5.960938 5.972656 C 6.421875 5.511719 6.90625 5.074219 7.410156 4.660156 C 7.917969 4.246094 8.441406 3.855469 8.984375 3.492188 C 9.527344 3.128906 10.085938 2.796875 10.660156 2.488281 C 11.238281 2.179688 11.828125 1.902344 12.429688 1.652344 C 13.03125 1.402344 13.648438 1.179688 14.273438 0.992188 C 14.898438 0.800781 15.53125 0.644531 16.167969 0.515625 C 16.808594 0.390625 17.457031 0.292969 18.105469 0.230469 C 18.753906 0.164062 19.40625 0.132812 20.058594 0.132812 C 20.710938 0.132812 21.363281 0.164062 22.011719 0.230469 C 22.664062 0.292969 23.308594 0.390625 23.949219 0.515625 C 24.589844 0.644531 25.222656 0.800781 25.847656 0.992188 C 26.472656 1.179688 27.085938 1.402344 27.6875 1.652344 C 28.292969 1.902344 28.882812 2.179688 29.457031 2.488281 C 30.03125 2.796875 30.59375 3.128906 31.136719 3.492188 C 31.679688 3.855469 32.203125 4.246094 32.707031 4.660156 C 33.210938 5.074219 33.695312 5.511719 34.15625 5.972656 C 34.617188 6.433594 35.054688 6.917969 35.46875 7.421875 C 35.882812 7.925781 36.273438 8.449219 36.636719 8.992188 C 37 9.535156 37.332031 10.097656 37.640625 10.671875 C 37.949219 11.246094 38.226562 11.835938 38.476562 12.441406 C 38.726562 13.042969 38.949219 13.65625 39.136719 14.28125 C 39.328125 14.90625 39.484375 15.539062 39.613281 16.179688 C 39.738281 16.820312 39.835938 17.464844 39.898438 18.117188 C 39.964844 18.765625 39.996094 19.417969 39.996094 20.070312 Z M 39.996094 20.070312 " fill-opacity="1" fill-rule="nonzero"/></g><path fill="#ffffff" d="M 33.976562 12.539062 C 33.765625 12.898438 33.527344 13.378906 33.355469 13.972656 C 33.085938 14.898438 33.082031 15.703125 33.125 16.242188 C 33.03125 16.175781 32.777344 16.015625 32.449219 16.039062 C 32 16.074219 31.683594 16.429688 31.554688 16.707031 C 31.203125 17.484375 31.953125 18.398438 32.089844 18.5625 C 32.652344 19.25 33.414062 19.457031 33.726562 19.519531 C 33.691406 19.363281 33.664062 19.121094 33.78125 18.890625 C 33.851562 18.75 33.949219 18.667969 34.03125 18.597656 C 34.554688 18.152344 34.816406 17.933594 34.929688 17.722656 C 34.96875 17.648438 35.183594 17.226562 34.992188 16.804688 C 34.8125 16.40625 34.398438 16.292969 34.359375 16.285156 C 33.929688 16.171875 33.59375 16.410156 33.550781 16.441406 C 33.605469 16.097656 33.660156 15.75 33.714844 15.40625 C 33.875 15.421875 34.214844 15.425781 34.582031 15.253906 C 34.84375 15.132812 35.023438 14.96875 35.121094 14.859375 C 35.007812 14.796875 34.835938 14.726562 34.621094 14.6875 C 34.355469 14.636719 34.128906 14.660156 33.988281 14.6875 C 34.09375 14.425781 34.246094 14.113281 34.46875 13.78125 C 34.707031 13.425781 34.960938 13.148438 35.171875 12.945312 C 35.113281 12.859375 35.003906 12.734375 34.835938 12.636719 C 34.460938 12.417969 34.070312 12.511719 33.976562 12.539062 Z M 33.976562 12.539062 " fill-opacity="1" fill-rule="nonzero"/><path fill="#ffffff" d="M 15.292969 19.980469 C 15.429688 20.105469 15.574219 20.230469 15.730469 20.351562 C 16.304688 20.804688 16.871094 21.125 17.382812 21.359375 C 15.917969 21.457031 13.667969 21.785156 11.167969 22.902344 C 8.910156 23.914062 7.289062 25.195312 6.261719 26.144531 C 6 25.65625 5.738281 25.171875 5.472656 24.6875 C 6.402344 23.761719 7.9375 22.453125 10.132812 21.425781 C 12.179688 20.472656 14.03125 20.117188 15.292969 19.980469 Z M 15.292969 19.980469 " fill-opacity="1" fill-rule="nonzero"/><path fill="#ffffff" d="M 24.9375 20.429688 C 24.007812 20.398438 22.671875 20.261719 21.160156 19.777344 C 18.769531 19.015625 17.226562 17.800781 16.054688 16.859375 C 14.640625 15.726562 12.484375 13.707031 10.617188 10.488281 C 11.933594 11.960938 14.363281 14.292969 18.082031 15.980469 C 21.152344 17.378906 23.929688 17.804688 25.761719 17.9375 C 25.734375 17.214844 25.582031 15.902344 24.742188 14.621094 C 23.5625 12.816406 21.738281 12.167969 20.542969 11.761719 C 18.753906 11.15625 17.730469 11.300781 16.15625 11.132812 C 14.386719 10.945312 11.929688 10.355469 9.019531 8.5625 C 9.886719 11.300781 11.050781 13.355469 11.984375 14.746094 C 12.59375 15.65625 13.488281 16.96875 15.023438 18.359375 C 15.636719 18.914062 17.945312 20.929688 20.832031 21.523438 C 21.601562 21.683594 22.269531 21.710938 22.96875 21.53125 C 23.933594 21.289062 24.59375 20.753906 24.9375 20.429688 Z M 24.9375 20.429688 " fill-opacity="1" fill-rule="nonzero"/><path fill="#ffffff" d="M 23.863281 12.53125 C 24.023438 12.65625 24.195312 12.800781 24.371094 12.96875 C 24.558594 13.144531 24.714844 13.316406 24.855469 13.480469 C 25.984375 11.25 28.230469 10.433594 29.613281 11.121094 C 30.785156 11.703125 31.066406 13.226562 31.109375 13.480469 C 30.664062 13.644531 30.058594 13.945312 29.550781 14.507812 C 28.953125 15.175781 28.894531 15.757812 28.464844 17.046875 C 28.148438 17.988281 27.765625 19.140625 26.996094 20.410156 C 26.289062 21.582031 25.554688 22.355469 25.140625 22.785156 C 24.6875 23.253906 23.847656 24.0625 22.640625 24.867188 C 22.070312 25.25 21.566406 25.527344 21.207031 25.710938 C 20.359375 26.183594 18.824219 27.179688 17.535156 29.011719 C 16.273438 30.800781 15.84375 32.546875 15.679688 33.496094 C 16.277344 33.632812 16.878906 33.765625 17.476562 33.898438 C 17.667969 33.007812 18.097656 31.554688 19.144531 30.046875 C 20.363281 28.292969 21.824219 27.324219 22.652344 26.851562 C 23.664062 26.265625 25.066406 25.296875 26.421875 23.777344 C 27.667969 22.375 28.441406 20.996094 28.910156 19.980469 C 29.378906 18.980469 29.648438 18.136719 29.804688 17.554688 C 30.042969 16.6875 30.082031 16.207031 30.515625 15.65625 C 30.949219 15.097656 31.488281 14.84375 31.875 14.660156 C 32.773438 14.230469 33.628906 14.164062 34.214844 14.179688 C 34.042969 13.894531 33.722656 13.449219 33.179688 13.066406 C 32.761719 12.769531 32.363281 12.613281 32.078125 12.53125 C 31.910156 11.976562 31.425781 10.667969 30.210938 10.039062 C 28.40625 9.105469 25.605469 9.980469 23.863281 12.53125 Z M 23.863281 12.53125 " fill-opacity="1" fill-rule="nonzero"/><path fill="#ffffff" d="M 29.738281 12.664062 C 29.738281 12.882812 29.660156 13.070312 29.503906 13.226562 C 29.347656 13.378906 29.160156 13.457031 28.941406 13.457031 C 28.722656 13.457031 28.535156 13.378906 28.378906 13.226562 C 28.226562 13.070312 28.148438 12.882812 28.148438 12.664062 C 28.148438 12.445312 28.226562 12.257812 28.378906 12.101562 C 28.535156 11.945312 28.722656 11.871094 28.941406 11.871094 C 29.160156 11.871094 29.347656 11.945312 29.503906 12.101562 C 29.660156 12.257812 29.738281 12.445312 29.738281 12.664062 Z M 29.738281 12.664062 " fill-opacity="1" fill-rule="nonzero"/></svg>